<?xml version="1.0" encoding="utf-8"?>
<!-- Svg Vector Icons : http://www.sfont.cn -->
<svg version="1.1" xmlns="http://www.w3.org/2000/svg" xmlns:xlink="http://www.w3.org/1999/xlink" x="0px" y="0px" viewBox="0 0 1000 1000" enable-background="new 0 0 1000 1000" xml:space="preserve">
	<metadata> Svg Vector Icons : http://www.sfont.cn </metadata>
	<g>
		<path fill="#F6F6F6" d="M 0,220 h 380 v -130 h 240 v 130 h 380 V 820 h -380 v 100 h -240 v -100 h -380 z"/>
		<g fill="#424242">
			<path d="M651.6,344c11,20.5,24.4,40.8,40.1,61c15.7,20.1,32.6,39.9,50.5,59.3c17.9,19.4,36.6,37.9,56,55.5c19.4,17.6,38.3,34.1,56.6,49.4c43.2,35.9,88.3,70.3,135.1,103.3L883.4,787.8c-22-19-42.1-37.7-60.4-56c-18.3-18.3-35.5-35.9-51.6-52.7v62.6H583.5V879h-167V741.7H228.6v-69.2h187.9V453.9c-14.6,23.4-32.6,48.3-53.8,74.7c-21.2,26.4-46.5,53.8-75.8,82.4c-29.3,28.6-62.8,58.4-100.5,89.5c-37.7,31.1-80.8,62.4-129.1,93.9L10,730.7c46.9-41.7,87-81.5,120.3-119.2c33.3-37.7,61.3-73.1,84-106c22.7-33,40.8-63,54.4-90.1c13.5-27.1,23.6-50.9,30.2-71.4H33.1v-85.7h383.4V121h167v137.3h382.3V344H651.6L651.6,344z M765.9,672.5c-49.8-52.7-89-100.3-117.6-142.8c-28.6-42.5-50.2-78.4-64.8-107.7v250.5H765.9z"/>
		</g>
	</g>
</svg>