<?xml version="1.0" encoding="utf-8"?>
<!-- Svg Vector Icons : http://www.sfont.cn -->
<svg version="1.1" xmlns="http://www.w3.org/2000/svg" xmlns:xlink="http://www.w3.org/1999/xlink" x="0px" y="0px" viewBox="0 0 1000 1000" enable-background="new 0 0 1000 1000" xml:space="preserve">
	<metadata> Svg Vector Icons : http://www.sfont.cn </metadata>
	<g>
		<path fill="#F6F6F6" d="M0,0H1000V1000H-1000V-1000z"/>
		<g fill="#424242">
			<path d="M887,35.8H113C56,35.8,10,81.9,10,138.7v722.6c0,56.9,46.1,102.9,103,102.9h774c57.1,0,103-46.1,103-102.9V138.7C990,81.8,943.9,35.8,887,35.8z M938.4,861.3c0,28.4-22.9,51.3-51.4,51.3H113c-28.5,0-51.4-23-51.4-51.3V138.7c0-28.4,22.9-51.3,51.4-51.3h774c28.4,0,51.4,23,51.4,51.3V861.3z"/>
			<path d="M279.3,252.6h181.9l-2.4-14.6c0-14.6,12.1-23.4,36.4-26.7c24.3,0,38.8,7.3,43.7,21.8l2.4,19.4h194c14.6,1.6,23.4,12.1,26.7,31.5c0,21-7.3,31.5-21.8,31.5H648l-9.7,34h121.3c16.2,1.6,25.1,12.9,26.7,34c0,19.4-8.1,29.1-24.3,29.1H238c-16.2,0-24.3-10.5-24.3-31.5c3.2-19.4,13.7-29.9,31.5-31.5h128.5l-17-34h-82.5c-16.2,0-24.3-10.5-24.3-31.5C253.4,264.7,263.1,254.2,279.3,252.6z M322.9,635.8c-32.3,0-47.7-17-46.1-50.9V478.2c-3.2-34,12.9-50.1,48.5-48.5h363.8c32.3,0,48.5,13.7,48.5,41.2v123.7c-3.2,27.5-20.2,41.2-50.9,41.2H543.7v17h213.4c14.6,1.6,22.6,12.1,24.3,31.5c-1.6,19.4-9.7,29.1-24.3,29.1H543.7v43.7c-1.6,19.4-14.6,29.9-38.8,31.5c-24.3-1.6-36.4-12.1-36.4-31.5v-43.7H252.6c-14.6,0-21.8-9.7-21.8-29.1c1.6-19.4,9.7-29.9,24.3-31.5h213.4v-17H322.9L322.9,635.8z M347.2,504.9h320.2V483H347.2V504.9z M347.2,555.8V580h320.2v-24.3H347.2z M444.2,349.6h121.3l9.7-34H429.7L444.2,349.6z"/>
		</g>
	</g>
</svg>