<?xml version="1.0" encoding="utf-8"?>
<!-- Svg Vector Icons : http://www.sfont.cn -->
<svg version="1.1" xmlns="http://www.w3.org/2000/svg" xmlns:xlink="http://www.w3.org/1999/xlink" x="0px" y="0px" viewBox="0 0 1000 1000" enable-background="new 0 0 1000 1000" xml:space="preserve">
	<metadata> Svg Vector Icons : http://www.sfont.cn </metadata>
	<g>
		<path fill="#F6F6F6" d="M 550,0 l 490,250 v 480 l -490,270 h -110 l -490,-270 v -475 l 510,-255 z"/>
		<g fill="#424242">
			<path d="M968,684.3l-86.1-42.4l-65.6,35.4l71.7,35.1l-393,212.2l-388.5-212l75.9-34.3l-65.4-35.7l-90.2,41.6c-10.1,5.1-16.7,15.5-16.8,26.9c-0.2,11.4,6,22,16,27.4l454.4,248c4.6,2.4,9.6,3.7,14.6,3.7c5,0,10-1.3,14.5-3.7l459.2-247.9c10-5.4,16.2-16,16.1-27.3C984.6,699.9,978.1,689.5,968,684.3z"/>
			<path d="M968,469.6l-90.9-46.3l-65.6,35.4l76.5,38.9L495.1,710L106.6,498l81.6-41.1l-65.4-35.7l-95.9,48.3c-10.1,5.1-16.7,15.5-16.8,26.9c-0.2,11.4,6,22,16,27.4l454.4,248c4.6,2.4,9.6,3.7,14.6,3.7c5,0,10-1.3,14.5-3.7l459.2-247.9c10-5.4,16.2-16,16.1-27.3C984.6,485.2,978.1,474.8,968,469.6z"/>
			<path d="M31.2,298.6l454.4,247.9c4.5,2.5,9.6,3.7,14.6,3.7c5,0,10-1.2,14.5-3.7l459.1-248c10-5.4,16.3-16,16.1-27.3c-0.2-11.5-6.6-21.8-16.8-27L518.8,13.1c-8.7-4.4-18.8-4.4-27.6-0.1L32.1,244.3c-10.1,5.1-16.7,15.5-16.8,26.9C15.1,282.6,21.2,293.1,31.2,298.6z M504.9,74.8l388.4,197.7l-393,212.2l-388.5-212L504.9,74.8z"/>
		</g>
	</g>
</svg>