<?xml version="1.0" encoding="utf-8"?>
<!-- Svg Vector Icons : http://www.sfont.cn -->
<svg version="1.1" xmlns="http://www.w3.org/2000/svg" xmlns:xlink="http://www.w3.org/1999/xlink" x="0px" y="0px" viewBox="0 0 1000 1000" enable-background="new 0 0 1000 1000" xml:space="preserve">
	<metadata> Svg Vector Icons : http://www.sfont.cn </metadata>
	<g>
		<path fill="#F6F6F6" d="M0,0H1000V1000H-1000V-1000z"/>
		<g fill="#424242">
			<path d="M826.7,990H173.3C83.5,990,10,916.5,10,826.7V173.3C10,83.5,83.5,10,173.3,10h653.3C916.5,10,990,83.5,990,173.3v653.3C990,916.5,916.5,990,826.7,990z M173.3,91.7c-44.9,0-81.7,36.8-81.7,81.7v653.3c0,44.9,36.7,81.7,81.7,81.7h653.3c44.9,0,81.7-36.8,81.7-81.7V173.3c0-44.9-36.8-81.7-81.7-81.7H173.3z"/>
			<path d="M704.2,336.7H295.8c-24.5,0-40.8-16.3-40.8-40.8s16.3-40.8,40.8-40.8h408.3c24.5,0,40.8,16.3,40.8,40.8S728.7,336.7,704.2,336.7z"/>
			<path d="M295.8,377.5c-24.5,0-40.8-16.3-40.8-40.8v-40.8c0-24.5,16.3-40.8,40.8-40.8c24.5,0,40.8,16.3,40.8,40.8v40.8C336.7,361.2,320.3,377.5,295.8,377.5z"/>
			<path d="M704.2,377.5c-24.5,0-40.8-16.3-40.8-40.8v-40.8c0-24.5,16.3-40.8,40.8-40.8c24.5,0,40.8,16.3,40.8,40.8v40.8C745,361.2,728.7,377.5,704.2,377.5z"/>
			<path d="M500,745c-24.5,0-40.8-16.3-40.8-40.8V295.8c0-24.5,16.3-40.8,40.8-40.8c24.5,0,40.8,16.3,40.8,40.8v408.3C540.8,728.7,524.5,745,500,745z"/>
			<path d="M540.8,745h-81.7c-24.5,0-40.8-16.3-40.8-40.8c0-24.5,16.3-40.8,40.8-40.8h81.7c24.5,0,40.8,16.3,40.8,40.8C581.7,728.7,565.3,745,540.8,745z"/>
		</g>
	</g>
</svg>